<?xml version="1.0" encoding="iso-8859-1"?>
<!-- Generator: Adobe Illustrator 19.0.0, SVG Export Plug-In . SVG Version: 6.00 Build 0)  -->
<svg version="1.1" id="Layer_1" xmlns="http://www.w3.org/2000/svg" xmlns:xlink="http://www.w3.org/1999/xlink" x="0px" y="0px"
	 viewBox="0 0 512 512" style="enable-background:new 0 0 512 512;" xml:space="preserve">
<circle style="fill:#6B7F9E;" cx="256" cy="256" r="256"/>
<path style="fill:#FCD34E;" d="M109.262,78.182h238.191c15.884,0,28.88,12.996,28.88,28.88v311.009
	c0,15.884-12.996,28.88-28.88,28.88H109.262V78.251V78.182z"/>
<polygon style="fill:#FFFFFF;" points="137.248,65.049 394.211,65.049 394.211,425.635 137.248,425.635 "/>
<path style="fill:#ECF0F1;" d="M363.2,425.635H137.248V85.815H337.07c15.128,0,27.436,12.377,27.436,27.436v303.927
	c0,2.957-0.481,5.776-1.306,8.389V425.635z"/>
<path style="fill:#C6CBD6;" d="M164.959,94.96h219.35v7.358h-219.35V94.96z M164.959,384.722h219.35v7.358h-219.35V384.722z
	 M164.959,348.485h219.35v7.358h-219.35V348.485z M164.959,312.247h219.35v7.358h-219.35V312.247z M164.959,276.01h219.35v7.358
	h-219.35V276.01z M164.959,239.772h219.35v7.357h-219.35V239.772z M164.959,203.535h219.35v7.357h-219.35V203.535z M164.959,167.297
	h219.35v7.358h-219.35V167.297z M164.959,131.06h219.35v7.358h-219.35V131.06z"/>
<path style="fill:#8597B1;" d="M164.959,94.96h192.464c1.925,2.2,3.576,4.676,4.745,7.358H164.959V94.96z M364.506,131.197v7.358
	H164.959v-7.358H364.506z M364.506,167.435v7.358H164.959v-7.358H364.506z M364.506,203.672v7.358H164.959v-7.358H364.506z
	 M364.506,239.91v7.358H164.959v-7.358H364.506z M364.506,276.147v7.358H164.959v-7.358H364.506z M364.506,312.385v7.358H164.959
	v-7.358H364.506z M364.506,348.622v7.358H164.959v-7.358H364.506z M364.506,384.86v7.358H164.959v-7.358H364.506z"/>
<path style="fill:#FFE356;" d="M101.286,78.182h226.501c15.128,0,27.436,12.377,27.436,27.436v303.927
	c0,15.128-12.377,27.436-27.436,27.436H101.286V78.113V78.182z"/>
<path style="fill:#FCD34E;" d="M101.286,418.415v-8.251h20.147c2.338,0,4.194,1.857,4.194,4.126l0,0
	c0,2.269-1.925,4.126-4.194,4.126H101.286z M101.286,390.704v-8.251h20.147c2.338,0,4.194,1.857,4.194,4.126l0,0
	c0,2.269-1.925,4.126-4.194,4.126H101.286z M101.286,362.993v-8.251h20.147c2.338,0,4.194,1.857,4.194,4.126l0,0
	c0,2.269-1.925,4.126-4.194,4.126H101.286z M101.286,335.282v-8.251h20.147c2.338,0,4.194,1.857,4.194,4.126l0,0
	c0,2.269-1.925,4.126-4.194,4.126H101.286z M101.286,307.571v-8.251h20.147c2.338,0,4.194,1.857,4.194,4.126l0,0
	c0,2.269-1.925,4.126-4.194,4.126H101.286z M101.286,279.86v-8.251h20.147c2.338,0,4.194,1.857,4.194,4.126l0,0
	c0,2.269-1.925,4.126-4.194,4.126H101.286z M101.286,252.149v-8.251h20.147c2.338,0,4.194,1.857,4.194,4.126l0,0
	c0,2.269-1.925,4.126-4.194,4.126H101.286z M101.286,224.438v-8.251h20.147c2.338,0,4.194,1.857,4.194,4.126l0,0
	c0,2.269-1.925,4.126-4.194,4.126H101.286z M101.286,196.727v-8.251h20.147c2.338,0,4.194,1.857,4.194,4.126l0,0
	c0,2.269-1.925,4.126-4.194,4.126H101.286z M101.286,169.016v-8.251h20.147c2.338,0,4.194,1.857,4.194,4.126l0,0
	c0,2.269-1.925,4.126-4.194,4.126H101.286z M101.286,141.305v-8.251h20.147c2.338,0,4.194,1.857,4.194,4.126l0,0
	c0,2.269-1.925,4.126-4.194,4.126H101.286z M101.286,113.594v-8.251h20.147c2.338,0,4.194,1.857,4.194,4.126l0,0
	c0,2.269-1.925,4.126-4.194,4.126H101.286z"/>
<path style="fill:#FFFFFF;" d="M228.22,205.391c28.88,0,52.259,23.379,52.259,52.259s-23.379,52.259-52.259,52.259
	s-52.259-23.379-52.259-52.259S199.34,205.391,228.22,205.391z"/>
<path style="fill:#C6CBD6;" d="M207.867,278.966h1.513l9.008-4.882l1.444-5.707c-2.132-2.132-4.332-5.845-6.395-10.314
	c-0.138,0-0.344,0.069-0.481,0.069c-2.407,0-4.745-2.613-5.295-5.776c-0.413-2.475,0.413-4.607,1.925-5.432
	c-1.994-10.245-3.369-26.061,14.302-29.911c10.589-2.338,14.371,5.845,14.853,6.739c6.395-3.576,10.521,1.788,11.552,4.676
	c1.925,5.157,1.306,14.784,0.344,19.047c1.031,1.031,1.582,2.819,1.238,4.951c-0.55,3.163-2.819,5.707-5.157,5.776
	c-1.857,4.126-4.401,7.701-7.014,10.314l1.444,5.707h0.138l8.733,4.882h1.65c7.701,0,14.509,4.057,18.153,10.039
	c-9.558,12.652-24.685,20.835-41.738,20.835c-15.953,0-30.186-7.151-39.744-18.359c3.163-7.358,10.727-12.515,19.46-12.515
	L207.867,278.966z"/>
<path style="fill:#FFFFFF;" d="M93.997,103.968h25.648c2.338,0,4.194,1.857,4.194,4.126l0,0c0,2.269-1.925,4.126-4.194,4.126H93.997
	c-2.338,0-4.194-1.857-4.194-4.126l0,0C89.803,105.824,91.728,103.968,93.997,103.968z M93.997,408.789h25.648
	c2.338,0,4.194,1.857,4.194,4.126l0,0c0,2.269-1.925,4.126-4.194,4.126H93.997c-2.338,0-4.194-1.857-4.194-4.126l0,0
	C89.803,410.645,91.728,408.789,93.997,408.789z M93.997,381.078h25.648c2.338,0,4.194,1.857,4.194,4.126l0,0
	c0,2.269-1.925,4.126-4.194,4.126H93.997c-2.338,0-4.194-1.857-4.194-4.126l0,0C89.803,382.934,91.728,381.078,93.997,381.078z
	 M93.997,353.367h25.648c2.338,0,4.194,1.857,4.194,4.126l0,0c0,2.269-1.925,4.126-4.194,4.126H93.997
	c-2.338,0-4.194-1.857-4.194-4.126l0,0C89.803,355.223,91.728,353.367,93.997,353.367z M93.997,325.656h25.648
	c2.338,0,4.194,1.857,4.194,4.126l0,0c0,2.269-1.925,4.126-4.194,4.126H93.997c-2.338,0-4.194-1.857-4.194-4.126l0,0
	C89.803,327.512,91.728,325.656,93.997,325.656z M93.997,297.945h25.648c2.338,0,4.194,1.857,4.194,4.126l0,0
	c0,2.269-1.925,4.126-4.194,4.126H93.997c-2.338,0-4.194-1.857-4.194-4.126l0,0C89.803,299.801,91.728,297.945,93.997,297.945z
	 M93.997,270.234h25.648c2.338,0,4.194,1.857,4.194,4.126l0,0c0,2.269-1.925,4.126-4.194,4.126H93.997
	c-2.338,0-4.194-1.857-4.194-4.126l0,0C89.803,272.09,91.728,270.234,93.997,270.234z M93.997,242.523h25.648
	c2.338,0,4.194,1.857,4.194,4.126l0,0c0,2.269-1.925,4.126-4.194,4.126H93.997c-2.338,0-4.194-1.857-4.194-4.126l0,0
	C89.803,244.379,91.728,242.523,93.997,242.523z M93.997,214.812h25.648c2.338,0,4.194,1.857,4.194,4.126l0,0
	c0,2.269-1.925,4.126-4.194,4.126H93.997c-2.338,0-4.194-1.857-4.194-4.126l0,0C89.803,216.668,91.728,214.812,93.997,214.812z
	 M93.997,187.101h25.648c2.338,0,4.194,1.857,4.194,4.126l0,0c0,2.269-1.925,4.126-4.194,4.126H93.997
	c-2.338,0-4.194-1.857-4.194-4.126l0,0C89.803,188.957,91.728,187.101,93.997,187.101z M93.997,159.39h25.648
	c2.338,0,4.194,1.857,4.194,4.126l0,0c0,2.269-1.925,4.126-4.194,4.126H93.997c-2.338,0-4.194-1.857-4.194-4.126l0,0
	C89.803,161.246,91.728,159.39,93.997,159.39z M93.997,131.679h25.648c2.338,0,4.194,1.857,4.194,4.126l0,0
	c0,2.269-1.925,4.126-4.194,4.126H93.997c-2.338,0-4.194-1.857-4.194-4.126l0,0C89.803,133.535,91.728,131.679,93.997,131.679z"/>
<g>
</g>
<g>
</g>
<g>
</g>
<g>
</g>
<g>
</g>
<g>
</g>
<g>
</g>
<g>
</g>
<g>
</g>
<g>
</g>
<g>
</g>
<g>
</g>
<g>
</g>
<g>
</g>
<g>
</g>
</svg>
