<?xml version="1.0" encoding="iso-8859-1"?>
<!-- Generator: Adobe Illustrator 19.0.0, SVG Export Plug-In . SVG Version: 6.00 Build 0)  -->
<svg version="1.1" id="Layer_1" xmlns="http://www.w3.org/2000/svg" xmlns:xlink="http://www.w3.org/1999/xlink" x="0px" y="0px"
	 viewBox="0 0 512.057 512.057" style="enable-background:new 0 0 512.057 512.057;" xml:space="preserve">
<circle style="fill:#83CF8F;" cx="256.028" cy="256.028" r="256.028"/>
<path style="fill:#ECF0F1;" d="M296.469,165.789h158.359c11.854,0,21.496,9.699,21.496,21.496v92.565
	c0,11.854-9.699,21.496-21.496,21.496H296.469c-11.854,0-21.496-9.699-21.496-21.496v-92.565
	C274.972,175.431,284.671,165.789,296.469,165.789z"/>
<path style="fill:#E4E7ED;" d="M473.998,289.663c-3.573,6.92-10.833,11.741-19.114,11.741H296.526
	c-8.281,0-15.541-4.764-19.114-11.741h196.644H473.998z"/>
<path style="fill:#C6CBD6;" d="M476.381,211.901v43.333h-9.359c-2.722,0-4.935-2.212-4.935-4.991v-33.407
	c0-2.723,2.212-4.935,4.935-4.935H476.381z"/>
<path style="fill:#ECF0F1;" d="M85.645,128.128h130.623c14.123,0,25.92,9.812,27.906,22.517h1.078
	c12.308,0,22.347,9.415,22.347,20.929v130.737c0,11.514-10.039,20.929-22.347,20.929h-1.078
	c-1.134,7.033-5.275,13.215-11.117,17.299v54.677c0,4.424-3.63,8.111-8.111,8.111H82.356c-4.424,0-8.111-3.63-8.111-8.111v-51.727
	c-9.869-4.14-16.789-13.386-16.789-24.105V154.502C57.456,139.982,70.161,128.128,85.645,128.128z"/>
<path style="fill:#E4E7ED;" d="M160.287,128.128h21.723c46.453,5.388,82.526,44.865,82.526,92.735
	c0,51.557-41.802,93.416-93.416,93.416c-51.557,0-93.416-41.802-93.416-93.416c0-47.927,36.073-87.404,82.526-92.735H160.287z"/>
<path style="fill:#C6CBD6;" d="M267.599,204.358h17.81c3.46,0,6.239,2.779,6.239,6.239v48.721c0,3.403-2.779,6.239-6.239,6.239
	h-17.81V204.358z"/>
<circle style="fill:#F8F8F8;" cx="163.634" cy="207.931" r="93.416"/>
<circle style="fill:#C6CBD6;" cx="163.634" cy="207.931" r="79.576"/>
<circle style="fill:#8597B1;" cx="163.634" cy="207.931" r="68.573"/>
<path style="fill:#6B7F9E;" d="M163.634,139.415c22.517,0,42.482,10.833,54.96,27.565c-12.308-11.684-28.927-18.831-47.19-18.831
	c-37.888,0-68.573,30.685-68.573,68.573c0,15.371,5.048,29.55,13.612,40.951c-13.159-12.478-21.383-30.174-21.383-49.742
	c0-37.888,30.685-68.573,68.573-68.573V139.415z"/>
<circle style="fill:#384A66;" cx="163.634" cy="207.931" r="42.369"/>
<circle style="fill:#2F3F57;" cx="163.634" cy="207.931" r="15.484"/>
<g>
	<circle style="fill:#C6CBD6;" cx="148.036" cy="182.861" r="10.323"/>
	<circle style="fill:#C6CBD6;" cx="178.721" cy="234.702" r="5.161"/>
</g>
<polygon style="fill:#E4E7ED;" points="74.245,343.489 233.057,343.489 233.057,350.181 74.245,350.181 "/>
<g>
</g>
<g>
</g>
<g>
</g>
<g>
</g>
<g>
</g>
<g>
</g>
<g>
</g>
<g>
</g>
<g>
</g>
<g>
</g>
<g>
</g>
<g>
</g>
<g>
</g>
<g>
</g>
<g>
</g>
</svg>
