<?xml version="1.0" encoding="iso-8859-1"?>
<!-- Generator: Adobe Illustrator 19.0.0, SVG Export Plug-In . SVG Version: 6.00 Build 0)  -->
<svg version="1.1" id="Layer_1" xmlns="http://www.w3.org/2000/svg" xmlns:xlink="http://www.w3.org/1999/xlink" x="0px" y="0px"
	 viewBox="0 0 512 512" style="enable-background:new 0 0 512 512;" xml:space="preserve">
<circle style="fill:#E4E7ED;" cx="256" cy="256" r="256"/>
<path style="fill:#83CF8F;" d="M227.091,90.072h185.758c14.216,0,25.684,11.587,25.684,25.684v120.175
	c0,14.216-11.587,25.684-25.684,25.684h-45.275l30.701,45.394l-111.574-43.602c-3.106-1.195-5.973-1.792-9.318-1.792H227.21
	c-14.216,0-25.684-11.587-25.684-25.684V115.755c0-14.216,11.587-25.684,25.684-25.684H227.091z"/>
<path style="fill:#75BD80;" d="M339.741,284.312l-53.159-20.786c-3.106-1.195-5.973-1.792-9.318-1.792h-50.173
	c-14.216,0-25.684-11.587-25.684-25.684v-60.804h111.574c14.813,0,26.878,12.065,26.878,26.878v82.307L339.741,284.312z"/>
<path style="fill:#FFFFFF;" d="M253.491,152.429h128.776c1.434,0,2.628-1.195,2.628-2.628v-1.911c0-1.434-1.195-2.628-2.628-2.628
	H253.491c-1.434,0-2.628,1.195-2.628,2.628v1.911C250.863,151.235,252.058,152.429,253.491,152.429z M253.491,188.028h128.776
	c1.434,0,2.628-1.195,2.628-2.628v-1.911c0-1.434-1.195-2.628-2.628-2.628H253.491c-1.434,0-2.628,1.195-2.628,2.628v1.911
	C250.863,186.833,252.058,188.028,253.491,188.028z M253.491,170.229h128.776c1.434,0,2.628-1.195,2.628-2.628v-1.911
	c0-1.434-1.195-2.628-2.628-2.628H253.491c-1.434,0-2.628,1.195-2.628,2.628v1.911C250.863,169.034,252.058,170.229,253.491,170.229
	z M253.491,205.827h128.776c1.434,0,2.628-1.195,2.628-2.628v-1.911c0-1.434-1.195-2.628-2.628-2.628H253.491
	c-1.434,0-2.628,1.195-2.628,2.628v1.911C250.863,204.633,252.058,205.827,253.491,205.827z"/>
<path style="fill:#FF7069;" d="M308.442,180.383H99.151c-14.216,0-25.684,11.587-25.684,25.684v137.139
	c0,14.216,11.587,25.684,25.684,25.684h52.323l-33.687,49.934l123.042-48.142c3.106-1.195,5.973-1.792,9.318-1.792h58.176
	c14.216,0,25.684-11.587,25.684-25.684V206.066c0-14.216-11.587-25.684-25.684-25.684H308.442z"/>
<path style="fill:#FFFFFF;" d="M277.144,307.606H135.108c-1.434,0-2.628-1.195-2.628-2.628v-2.628c0-1.434,1.195-2.628,2.628-2.628
	h142.036c1.434,0,2.628,1.195,2.628,2.628v2.628C279.772,306.412,278.578,307.606,277.144,307.606z M277.144,288.015H135.108
	c-1.434,0-2.628-1.195-2.628-2.628v-2.628c0-1.434,1.195-2.628,2.628-2.628h142.036c1.434,0,2.628,1.195,2.628,2.628v2.628
	C279.772,286.82,278.578,288.015,277.144,288.015z M277.144,268.424H135.108c-1.434,0-2.628-1.195-2.628-2.628v-2.628
	c0-1.434,1.195-2.628,2.628-2.628h142.036c1.434,0,2.628,1.195,2.628,2.628v2.628C279.772,267.229,278.578,268.424,277.144,268.424z
	 M277.144,248.832H135.108c-1.434,0-2.628-1.195-2.628-2.628v-2.628c0-1.434,1.195-2.628,2.628-2.628h142.036
	c1.434,0,2.628,1.195,2.628,2.628v2.628C279.772,247.638,278.578,248.832,277.144,248.832z"/>
<g>
</g>
<g>
</g>
<g>
</g>
<g>
</g>
<g>
</g>
<g>
</g>
<g>
</g>
<g>
</g>
<g>
</g>
<g>
</g>
<g>
</g>
<g>
</g>
<g>
</g>
<g>
</g>
<g>
</g>
</svg>
