<?xml version="1.0" encoding="iso-8859-1"?>
<!-- Generator: Adobe Illustrator 19.0.0, SVG Export Plug-In . SVG Version: 6.00 Build 0)  -->
<svg version="1.1" id="Layer_1" xmlns="http://www.w3.org/2000/svg" xmlns:xlink="http://www.w3.org/1999/xlink" x="0px" y="0px"
	 viewBox="0 0 512 512" style="enable-background:new 0 0 512 512;" xml:space="preserve">
<circle style="fill:#FF7069;" cx="256" cy="256" r="256"/>
<path style="fill:#FFE356;" d="M71.659,213.136H440.21c10.519,0,19.197,8.678,19.197,19.197v229.703H52.462V232.333
	C52.462,221.814,61.14,213.136,71.659,213.136z"/>
<path style="fill:#FCD34E;" d="M186.839,179.213h231.675c10.519,0,19.197,8.678,19.197,19.197v14.726H74.026V198.41v-31.819
	c0-3.287,2.63-5.917,5.917-5.917h100.848c3.287,0,5.917,2.63,5.917,5.917v12.622H186.839z"/>
<path style="fill:#FEFEFE;" d="M100.191,196.701H434.03c7.1,0,12.754,5.785,12.754,12.754v4.733
	c-2.104-0.789-4.207-1.183-6.574-1.183H87.306v-3.55c0-7.1,5.785-12.754,12.754-12.754H100.191z"/>
<polygon style="fill:#FCD34E;" points="459.406,453.489 459.406,462.036 52.462,462.036 52.462,453.489 "/>
<g>
	<path style="fill:#FEFEFE;" d="M277.958,153.968c-0.92,1.446-2.893,1.709-4.339,0.789c-1.446-0.92-1.709-2.893-0.789-4.339
		c2.235-3.287,5.259-6.048,8.809-7.889c3.419-1.841,7.363-2.893,11.439-2.893c4.076,0,8.021,1.052,11.439,2.893
		c3.55,1.841,6.574,4.602,8.809,7.889c0.92,1.446,0.657,3.287-0.789,4.339c-1.446,0.92-3.287,0.657-4.339-0.789
		c-1.709-2.498-3.945-4.47-6.574-5.917c-2.498-1.315-5.522-2.104-8.546-2.104c-3.156,0-6.048,0.789-8.546,2.104
		C281.902,149.498,279.667,151.47,277.958,153.968z M220.894,115.049c-0.92,1.446-2.893,1.709-4.339,0.789
		c-1.446-0.92-1.709-2.893-0.789-4.339c8.546-12.622,20.117-22.878,33.66-30.11c13.017-6.837,27.875-10.782,43.653-10.782
		c15.778,0,30.636,3.945,43.653,10.782c13.543,7.1,25.114,17.487,33.66,30.11c0.92,1.446,0.657,3.287-0.789,4.339
		c-1.446,0.92-3.287,0.657-4.339-0.789c-8.021-11.702-18.802-21.432-31.425-28.138c-12.097-6.443-26.034-10.124-40.76-10.124
		c-14.726,0-28.664,3.682-40.76,10.124C239.696,93.617,228.914,103.215,220.894,115.049z M239.827,127.934
		c-0.92,1.446-2.893,1.709-4.339,0.789c-1.446-0.92-1.709-2.893-0.789-4.339c6.443-9.467,15.252-17.356,25.376-22.747
		c9.861-5.259,21.037-8.152,33.003-8.152c11.834,0,23.141,2.893,33.003,8.152c10.256,5.391,18.934,13.28,25.376,22.747
		c0.92,1.446,0.657,3.287-0.789,4.339c-1.446,0.92-3.287,0.657-4.339-0.789c-5.917-8.678-13.937-15.778-23.141-20.775
		c-8.941-4.733-19.197-7.363-30.11-7.363c-10.913,0-21.038,2.63-30.11,7.363C253.633,112.025,245.744,119.256,239.827,127.934z
		 M256.263,139.11c-0.92,1.446-2.893,1.709-4.339,0.789c-1.446-0.92-1.709-2.893-0.789-4.339
		c4.602-6.837,10.913-12.36,18.276-16.304c7.1-3.682,15.121-5.785,23.667-5.785s16.567,2.104,23.667,5.785
		c7.363,3.813,13.543,9.467,18.276,16.304c0.92,1.446,0.657,3.287-0.789,4.339c-1.446,0.92-3.287,0.657-4.339-0.789
		c-4.076-5.917-9.598-10.913-16.041-14.332c-6.18-3.287-13.28-5.128-20.775-5.128c-7.495,0-14.595,1.841-20.775,5.128
		C265.861,128.197,260.339,133.062,256.263,139.11z"/>
	<path style="fill:#FEFEFE;" d="M195.912,318.587c7.495,0,13.674,6.048,13.674,13.674c0,7.495-6.048,13.674-13.674,13.674
		c-7.495,0-13.674-6.048-13.674-13.674C182.237,324.766,188.286,318.587,195.912,318.587z M315.957,318.587
		c7.495,0,13.674,6.048,13.674,13.674c0,7.495-6.048,13.674-13.674,13.674c-7.495,0-13.674-6.048-13.674-13.674
		C302.282,324.766,308.331,318.587,315.957,318.587z M255.868,318.587c7.495,0,13.674,6.048,13.674,13.674
		c0,7.495-6.048,13.674-13.674,13.674c-7.495,0-13.674-6.048-13.674-13.674C242.194,324.766,248.242,318.587,255.868,318.587z"/>
</g>
<g>
</g>
<g>
</g>
<g>
</g>
<g>
</g>
<g>
</g>
<g>
</g>
<g>
</g>
<g>
</g>
<g>
</g>
<g>
</g>
<g>
</g>
<g>
</g>
<g>
</g>
<g>
</g>
<g>
</g>
</svg>
