<?xml version="1.0" encoding="iso-8859-1"?>
<!-- Generator: Adobe Illustrator 19.0.0, SVG Export Plug-In . SVG Version: 6.00 Build 0)  -->
<svg version="1.1" id="Layer_1" xmlns="http://www.w3.org/2000/svg" xmlns:xlink="http://www.w3.org/1999/xlink" x="0px" y="0px"
	 viewBox="0 0 512.132 512.132" style="enable-background:new 0 0 512.132 512.132;" xml:space="preserve">
<circle style="fill:#FFE356;" cx="256.066" cy="256.066" r="256.066"/>
<g>
	<path style="fill:#FF7069;" d="M167.291,97.192c10.916-9.732,23.41-17.36,36.825-22.753c16.44-6.576,34.326-9.864,51.95-9.864
		c17.755,0,35.51,3.288,51.95,9.864c13.415,5.392,26.041,13.02,36.825,22.753l-4.866,5.524c-3.551,3.946-9.338,4.472-13.546,1.315
		c-7.628-5.787-15.914-10.39-24.725-13.941c-14.335-5.787-29.986-8.68-45.637-8.68s-31.301,2.893-45.768,8.68
		c-8.812,3.551-17.097,8.154-24.725,13.941c-4.209,3.156-9.995,2.63-13.546-1.315l-4.866-5.524H167.291z"/>
	<path style="fill:#FFFFFF;" d="M104.557,196.62c0.921-70.757,39.982-116.13,89.958-136.253
		c19.465-7.891,40.639-11.705,61.55-11.705c21.043,0,42.086,3.946,61.55,11.705c49.845,20.122,89.038,65.496,89.958,136.253
		c0,0.658-0.263,1.315-0.658,1.71c-0.526,0.526-1.052,0.789-1.71,0.789h-15.256c-1.315,0-2.367-1.052-2.499-2.367
		c-0.921-61.287-34.458-100.48-77.333-117.709c-16.966-6.839-35.51-10.258-54.185-10.258c-18.544,0-37.088,3.419-54.185,10.258
		c-42.875,17.229-76.412,56.421-77.201,117.709c0,1.315-1.052,2.367-2.499,2.367h-15.256c-0.658,0-1.315-0.263-1.71-0.789
		c-0.526-0.526-0.658-1.052-0.658-1.71H104.557z"/>
</g>
<path style="fill:#596366;" d="M105.741,275.399h19.333v51.029h-19.333c-5.392,0-9.732-4.34-9.732-9.732v-31.564
	C96.008,279.739,100.348,275.399,105.741,275.399z"/>
<path style="fill:#FFFFFF;" d="M111.396,199.118h6.839v88.38c0,1.841-1.578,3.419-3.419,3.419l0,0c-1.841,0-3.419-1.578-3.419-3.419
	V199.118z"/>
<path style="fill:#FF7069;" d="M132.044,261.721h6.839v78.648h-6.839c-3.814,0-6.839-3.156-6.839-6.839v-64.838
	c0-3.814,3.156-6.839,6.839-6.839V261.721z"/>
<path style="fill:#FFFFFF;" d="M153.745,251.463h-7.628c-3.946,0-7.234,3.288-7.234,7.234v84.698c0,3.946,3.288,7.102,7.234,7.102
	h7.628c3.946,0,7.233-3.156,7.233-7.102v-84.698C160.978,254.751,157.69,251.463,153.745,251.463z"/>
<path style="fill:#596366;" d="M406.259,275.399h-19.333v51.029h19.333c5.392,0,9.732-4.34,9.732-9.732v-31.564
	C415.992,279.739,411.652,275.399,406.259,275.399z"/>
<path style="fill:#FFFFFF;" d="M400.736,199.118h-6.839v88.38c0,1.841,1.578,3.419,3.419,3.419l0,0c1.841,0,3.419-1.578,3.419-3.419
	V199.118z"/>
<path style="fill:#FF7069;" d="M380.087,261.721h-6.839v78.648h6.839c3.814,0,6.839-3.156,6.839-6.839v-64.838
	c0-3.814-3.156-6.839-6.839-6.839V261.721z"/>
<g>
	<path style="fill:#FFFFFF;" d="M358.387,251.463h7.628c3.946,0,7.234,3.288,7.234,7.234v84.698c0,3.946-3.288,7.102-7.234,7.102
		h-7.628c-3.946,0-7.233-3.156-7.233-7.102v-84.698C351.153,254.751,354.441,251.463,358.387,251.463z"/>
	<path style="fill:#FFFFFF;" d="M415.992,290.129h9.338c2.104,0,3.683,1.71,3.683,3.682v16.177c0,2.104-1.71,3.682-3.683,3.682
		h-9.338v-23.673V290.129z"/>
	<path style="fill:#FFFFFF;" d="M286.709,416.781h64.97c18.281,0,34.984-7.497,46.952-19.596c12.1-12.1,19.596-28.671,19.596-46.952
		v-48.267h6.05v48.267c0,19.991-8.154,38.14-21.306,51.161c-13.152,13.152-31.301,21.306-51.161,21.306h-64.97v-6.05
		L286.709,416.781z"/>
</g>
<path style="fill:#596366;" d="M254.488,409.284h31.17c3.414,0,6.181,2.767,6.181,6.181v6.444c0,3.414-2.767,6.181-6.181,6.181
	h-31.17c-3.414,0-6.181-2.768-6.181-6.181v-6.444C248.306,412.052,251.074,409.284,254.488,409.284z"/>
<g>
</g>
<g>
</g>
<g>
</g>
<g>
</g>
<g>
</g>
<g>
</g>
<g>
</g>
<g>
</g>
<g>
</g>
<g>
</g>
<g>
</g>
<g>
</g>
<g>
</g>
<g>
</g>
<g>
</g>
</svg>
