<?xml version="1.0" encoding="iso-8859-1"?>
<!-- Generator: Adobe Illustrator 19.0.0, SVG Export Plug-In . SVG Version: 6.00 Build 0)  -->
<svg version="1.1" id="Layer_1" xmlns="http://www.w3.org/2000/svg" xmlns:xlink="http://www.w3.org/1999/xlink" x="0px" y="0px"
	 viewBox="0 0 512 512" style="enable-background:new 0 0 512 512;" xml:space="preserve">
<circle style="fill:#FFE356;" cx="256" cy="256" r="256"/>
<path style="fill:#FF7069;" d="M125.358,86.912h182.571c44.276,0,80.535,36.259,80.535,80.535v140.117H43.183V169.088
	C43.183,123.9,80.171,86.912,125.358,86.912z"/>
<path style="fill:#F7635B;" d="M309.751,86.912c43.547,0.911,78.713,36.806,78.713,80.535v140.117h-153.6V163.621
	C234.864,122.078,268.39,87.823,309.751,86.912z"/>
<path style="fill:#FFFFFF;" d="M168.541,307.564h44.458v200.791c-15.305-2.551-30.064-6.559-44.458-11.661V307.564z"/>
<g>
	<path style="fill:#E4E7ED;" d="M201.52,307.564h11.297v200.791c-3.826-0.729-7.653-1.458-11.297-2.186V307.564z"/>
	<polygon style="fill:#E4E7ED;" points="168.541,307.564 212.817,307.564 212.817,316.675 168.541,316.675 	"/>
</g>
<polygon style="fill:#C6CBD6;" points="248.894,156.515 425.088,156.515 425.088,268.937 248.894,268.937 "/>
<polygon style="fill:#BFC5D1;" points="270.941,254.725 270.941,268.937 248.894,268.937 "/>
<polygon style="fill:#E4E7ED;" points="248.894,156.515 336.9,212.635 248.894,268.937 "/>
<polygon style="fill:#C6CBD6;" points="248.894,156.515 270.941,170.727 270.941,254.725 248.894,268.937 "/>
<polygon style="fill:#E4E7ED;" points="425.088,156.515 336.9,212.635 425.088,268.937 "/>
<polygon style="fill:#FFFFFF;" points="336.9,225.936 425.088,156.515 248.894,156.515 "/>
<path style="fill:#E4E7ED;" d="M275.132,156.515h-26.238l22.047,17.31v-4.009C270.941,165.99,272.216,160.706,275.132,156.515z"/>
<path style="fill:#FF7069;" d="M234.864,307.564h153.6l14.759,86.366c7.288,42.272-21.5,76.891-63.772,76.891l0,0
	c-42.272,0-82.722-34.619-89.828-76.891L234.864,307.564z"/>
<g>
</g>
<g>
</g>
<g>
</g>
<g>
</g>
<g>
</g>
<g>
</g>
<g>
</g>
<g>
</g>
<g>
</g>
<g>
</g>
<g>
</g>
<g>
</g>
<g>
</g>
<g>
</g>
<g>
</g>
</svg>
