<?xml version="1.0" encoding="iso-8859-1"?>
<!-- Generator: Adobe Illustrator 19.0.0, SVG Export Plug-In . SVG Version: 6.00 Build 0)  -->
<svg version="1.1" id="Layer_1" xmlns="http://www.w3.org/2000/svg" xmlns:xlink="http://www.w3.org/1999/xlink" x="0px" y="0px"
	 viewBox="0 0 512 512" style="enable-background:new 0 0 512 512;" xml:space="preserve">
<circle style="fill:#FFE356;" cx="256" cy="256" r="256"/>
<path style="fill:#FEFEFE;" d="M195.228,400.629l-6.324,7.631c-1.325,1.596-2.162,3.475-2.451,5.397
	c-0.289,1.909-0.012,3.837,0.885,5.559c2.668,5.101,2.921,10.082,1.614,14.437c-1.036,3.451-3.066,6.571-5.656,9.101
	c-2.608,2.548-5.776,4.475-9.065,5.511c-4.156,1.313-8.504,1.199-12.13-0.897c-0.404-0.235-1.795-0.879-2.963-1.415l-0.006,0.006
	l-1.452-0.675l0.006-0.012c-5.535-2.837-11.944-2.873-17.84-0.771c-4.276,1.524-8.288,4.18-11.498,7.703
	c-3.222,3.542-5.644,7.968-6.734,13.016c-0.572,2.644-0.771,5.451-0.524,8.372c2.801,1.741,5.637,3.439,8.516,5.071
	c-1.65-4.583-1.873-8.836-1.066-12.57c0.771-3.584,2.5-6.734,4.794-9.257c2.307-2.536,5.186-4.445,8.245-5.541
	c4.114-1.464,8.577-1.446,12.407,0.518l0.012-0.012c0.241,0.126,0.909,0.434,1.662,0.783v0.012c1.06,0.494,2.343,1.084,2.457,1.15
	c5.33,3.084,11.63,3.283,17.587,1.403c4.463-1.409,8.733-4.005,12.245-7.432c3.529-3.445,6.312-7.764,7.764-12.6
	c1.831-6.101,1.542-12.955-2.036-19.803c-0.211-0.404-0.277-0.849-0.211-1.283c0.066-0.476,0.307-0.97,0.681-1.421l6.324-7.631
	L195.228,400.629z"/>
<path style="fill:#FF7069;" d="M309.177,371.785c19.394-17.997,37.782-41.817,53.442-66.716l0.108,0.06
	c0.404-0.699,0.789-1.421,1.193-2.126c0.434-0.693,0.879-1.373,1.307-2.066l-0.114-0.066c14.431-25.628,26.621-53.141,33.205-78.762
	c15.353-59.712,7.86-93.862-31.283-117.171l-19.117-11.383c-7.962-4.746-18.328-2.12-23.074,5.848l-39.794,66.819
	c-2.5,4.186-3.06,8.733-1.668,13.413c1.391,4.674,4.349,8.167,8.727,10.317c29.169,14.28,54.249,19.37,29.229,59.591l-11.112,18.653
	l-2.5,4.198l-11.112,18.653c-23.447,41.161-39.872,21.526-66.325,2.686c-3.975-2.825-8.456-3.764-13.232-2.759
	c-4.77,1.006-8.498,3.668-10.998,7.86l-39.794,66.819c-4.74,7.962-2.114,18.328,5.848,23.074l19.117,11.389
	c39.143,23.309,72.739,13.63,117.924-28.314L309.177,371.785z"/>
<path style="fill:#FFFFFF;" d="M166.282,365.642l39.794-66.819c2.5-4.186,6.222-6.854,10.998-7.86
	c4.776-1.006,9.257-0.066,13.232,2.765c1.572,1.12,3.108,2.241,4.608,3.355l-56.73,95.247l-6.059-3.608
	c-7.962-4.746-10.594-15.112-5.848-23.074L166.282,365.642z M324.848,99.397l-39.794,66.819c-2.5,4.192-3.06,8.739-1.668,13.413
	c1.391,4.674,4.355,8.173,8.733,10.317c1.729,0.849,3.445,1.662,5.138,2.457l56.724-95.247l-6.059-3.608
	C339.96,88.803,329.595,91.429,324.848,99.397z"/>
<path style="fill:#FEFEFE;" d="M276.827,138.938c0.578,1.5-0.169,3.18-1.668,3.758c-1.5,0.572-3.18-0.169-3.758-1.668
	c-1.349-3.505-1.831-7.312-1.385-11.07c0.428-3.626,1.717-7.191,3.927-10.39c2.204-3.198,5.083-5.668,8.324-7.36
	c3.355-1.747,7.089-2.644,10.841-2.62c1.602,0.006,2.903,1.313,2.891,2.921c-0.006,1.602-1.319,2.897-2.921,2.891
	c-2.819-0.012-5.607,0.657-8.113,1.963c-2.409,1.253-4.565,3.108-6.228,5.517c-1.662,2.409-2.632,5.077-2.951,7.776
	C275.454,133.463,275.816,136.312,276.827,138.938z M216.098,162.361c0.578,1.5-0.169,3.18-1.668,3.758
	c-1.5,0.578-3.18-0.169-3.758-1.668c-5.15-13.383-6.999-27.898-5.294-42.221c1.638-13.805,6.565-27.417,15.003-39.637
	s19.418-21.659,31.747-28.079c12.787-6.661,27.019-10.082,41.36-10.01c1.602,0.006,2.903,1.319,2.891,2.921
	c-0.006,1.602-1.319,2.897-2.921,2.891c-13.395-0.06-26.694,3.126-38.637,9.354c-11.498,5.993-21.755,14.804-29.645,26.236
	s-12.498,24.146-14.027,37.023c-1.584,13.371,0.139,26.935,4.951,39.438V162.361z M236.275,154.579
	c0.578,1.5-0.169,3.18-1.668,3.758c-1.5,0.578-3.18-0.169-3.758-1.668c-3.885-10.101-5.282-21.062-3.999-31.874
	c1.235-10.42,4.957-20.701,11.323-29.922s14.66-16.34,23.965-21.195c9.649-5.029,20.394-7.607,31.217-7.559
	c1.602,0.006,2.903,1.319,2.891,2.921c-0.006,1.608-1.319,2.903-2.927,2.891c-9.878-0.048-19.689,2.307-28.495,6.896
	c-8.48,4.421-16.039,10.926-21.863,19.358s-9.221,17.81-10.347,27.308c-1.168,9.86,0.102,19.864,3.65,29.085H236.275z
	 M253.82,147.816c0.578,1.5-0.169,3.18-1.668,3.758c-1.5,0.572-3.18-0.169-3.758-1.668c-2.789-7.246-3.788-15.112-2.867-22.869
	c0.885-7.481,3.554-14.853,8.125-21.472c4.565-6.613,10.516-11.727,17.196-15.208c6.926-3.608,14.642-5.463,22.405-5.427
	c1.602,0.006,2.897,1.319,2.891,2.921c-0.006,1.608-1.319,2.903-2.921,2.891c-6.824-0.03-13.594,1.59-19.677,4.764
	c-5.854,3.048-11.076,7.541-15.1,13.365c-4.023,5.824-6.366,12.299-7.143,18.858c-0.807,6.812,0.072,13.714,2.524,20.087H253.82z"/>
<g>
</g>
<g>
</g>
<g>
</g>
<g>
</g>
<g>
</g>
<g>
</g>
<g>
</g>
<g>
</g>
<g>
</g>
<g>
</g>
<g>
</g>
<g>
</g>
<g>
</g>
<g>
</g>
<g>
</g>
</svg>
