<?xml version="1.0" encoding="iso-8859-1"?>
<!-- Generator: Adobe Illustrator 19.0.0, SVG Export Plug-In . SVG Version: 6.00 Build 0)  -->
<svg version="1.1" id="Layer_1" xmlns="http://www.w3.org/2000/svg" xmlns:xlink="http://www.w3.org/1999/xlink" x="0px" y="0px"
	 viewBox="0 0 512 512" style="enable-background:new 0 0 512 512;" xml:space="preserve">
<circle style="fill:#6B7F9E;" cx="256" cy="256" r="256"/>
<g>
	<polygon style="fill:#FEFEFE;" points="254.554,111.236 143.975,253.239 105.582,390.64 96.509,388.142 135.166,249.82 
		135.429,248.9 135.955,248.111 247.191,105.45 	"/>
	<polygon style="fill:#FEFEFE;" points="254.554,111.236 365,253.239 403.394,390.64 412.466,388.142 373.81,249.82 373.678,248.9 
		373.021,248.111 261.917,105.45 	"/>
</g>
<path style="fill:#FF7069;" d="M254.554,63.375c19.723,0,35.764,16.041,35.764,35.764s-16.041,35.764-35.764,35.764
	s-35.764-16.041-35.764-35.764S234.831,63.375,254.554,63.375z"/>
<path style="fill:#FF9B96;" d="M245.35,76.129c6.443,0,11.702,5.259,11.702,11.702c0,3.813-1.841,7.1-4.602,9.335
	c-1.972,1.446-4.339,2.367-6.969,2.367c-6.443,0-11.702-5.259-11.702-11.702c0-6.443,5.259-11.702,11.702-11.702H245.35z"/>
<g>
	<polygon style="fill:#FEFEFE;" points="335.285,390.64 373.81,252.318 364.869,249.82 326.213,388.142 	"/>
	<polygon style="fill:#FEFEFE;" points="177.504,381.436 138.847,243.115 147.92,240.616 186.576,378.938 	"/>
</g>
<path style="fill:#FFE356;" d="M144.238,219.973c13.937,0,25.245,11.308,25.245,25.245c0,13.937-11.308,25.245-25.245,25.245
	c-13.937,0-25.245-11.308-25.245-25.245C118.993,231.281,130.301,219.973,144.238,219.973z"/>
<path style="fill:#FFEF9C;" d="M137.796,228.914c4.602,0,8.284,3.682,8.284,8.284c0,2.63-1.315,4.996-3.287,6.574
	c-1.315,1.052-3.156,1.709-4.996,1.709c-4.602,0-8.284-3.682-8.284-8.284C129.512,232.596,133.194,228.914,137.796,228.914z"/>
<path style="fill:#83CF8F;" d="M104.793,362.239c9.861,0,17.882,8.021,17.882,17.882c0,9.861-8.021,17.882-17.882,17.882
	s-17.882-8.021-17.882-17.882C86.911,370.26,94.932,362.239,104.793,362.239z"/>
<path style="fill:#A3E0AC;" d="M100.191,368.682c3.156,0,5.785,2.63,5.785,5.785c0,1.841-0.92,3.55-2.367,4.602
	c-0.92,0.789-2.235,1.183-3.55,1.183c-3.156,0-5.785-2.63-5.785-5.785c0-3.156,2.63-5.785,5.785-5.785H100.191z"/>
<path style="fill:#83CF8F;" d="M181.974,362.239c9.861,0,17.882,8.021,17.882,17.882c0,9.861-8.021,17.882-17.882,17.882
	c-9.861,0-17.882-8.021-17.882-17.882C164.092,370.26,172.113,362.239,181.974,362.239z"/>
<path style="fill:#A3E0AC;" d="M177.504,368.682c3.156,0,5.785,2.63,5.785,5.785c0,1.841-0.92,3.55-2.367,4.602
	c-0.92,0.789-2.235,1.183-3.55,1.183c-3.156,0-5.785-2.63-5.785-5.785c0-3.156,2.63-5.785,5.785-5.785H177.504z"/>
<path style="fill:#FFE356;" d="M365.658,219.973c13.937,0,25.245,11.308,25.245,25.245c0,13.937-11.308,25.245-25.245,25.245
	c-13.937,0-25.245-11.308-25.245-25.245C340.413,231.281,351.721,219.973,365.658,219.973z"/>
<path style="fill:#FFEF9C;" d="M359.215,228.914c4.602,0,8.284,3.682,8.284,8.284c0,2.63-1.315,4.996-3.287,6.574
	c-1.315,1.052-3.156,1.709-4.996,1.709c-4.602,0-8.284-3.682-8.284-8.284C350.932,232.596,354.613,228.914,359.215,228.914z"/>
<path style="fill:#83CF8F;" d="M329.894,362.239c9.861,0,17.882,8.021,17.882,17.882c0,9.861-8.021,17.882-17.882,17.882
	c-9.861,0-17.882-8.021-17.882-17.882C312.012,370.26,320.033,362.239,329.894,362.239z"/>
<path style="fill:#A3E0AC;" d="M325.292,368.682c3.156,0,5.785,2.63,5.785,5.785c0,1.841-0.92,3.55-2.367,4.602
	c-0.92,0.789-2.235,1.183-3.55,1.183c-3.156,0-5.785-2.63-5.785-5.785c0-3.156,2.63-5.785,5.785-5.785H325.292z"/>
<path style="fill:#83CF8F;" d="M407.075,362.239c9.861,0,17.882,8.021,17.882,17.882c0,9.861-8.021,17.882-17.882,17.882
	c-9.861,0-17.882-8.021-17.882-17.882C389.194,370.26,397.214,362.239,407.075,362.239z"/>
<path style="fill:#A3E0AC;" d="M402.605,368.682c3.156,0,5.785,2.63,5.785,5.785c0,1.841-0.92,3.55-2.367,4.602
	c-0.92,0.789-2.235,1.183-3.55,1.183c-3.156,0-5.785-2.63-5.785-5.785c0-3.156,2.63-5.785,5.785-5.785H402.605z"/>
<g>
</g>
<g>
</g>
<g>
</g>
<g>
</g>
<g>
</g>
<g>
</g>
<g>
</g>
<g>
</g>
<g>
</g>
<g>
</g>
<g>
</g>
<g>
</g>
<g>
</g>
<g>
</g>
<g>
</g>
</svg>
