<?xml version="1.0" encoding="iso-8859-1"?>
<!-- Generator: Adobe Illustrator 19.0.0, SVG Export Plug-In . SVG Version: 6.00 Build 0)  -->
<svg version="1.1" id="Layer_1" xmlns="http://www.w3.org/2000/svg" xmlns:xlink="http://www.w3.org/1999/xlink" x="0px" y="0px"
	 viewBox="0 0 512.057 512.057" style="enable-background:new 0 0 512.057 512.057;" xml:space="preserve">
<circle style="fill:#E4E7ED;" cx="256.028" cy="256.028" r="256.028"/>
<path style="fill:#6B7F9E;" d="M128.752,73.11h254.554c8.054,0,14.633,6.579,14.633,14.633v336.569
	c0,8.054-6.579,14.633-14.633,14.633H128.752c-8.054,0-14.633-6.579-14.633-14.633V87.744
	C114.118,79.69,120.697,73.11,128.752,73.11z"/>
<path style="fill:#83CF8F;" d="M131.871,99.031h248.258c0.908,0,1.702,0.737,1.702,1.702v302.254c0,0.908-0.737,1.702-1.702,1.702
	H131.871c-0.907,0-1.702-0.737-1.702-1.702V100.732C130.169,99.825,130.907,99.031,131.871,99.031z"/>
<g>
	<circle style="fill:#C6CBD6;" cx="256.028" cy="421.193" r="9.529"/>
	<path style="fill:#C6CBD6;" d="M238.049,86.099h35.903c0.908,0,1.645,0.737,1.645,1.645l0,0c0,0.908-0.737,1.645-1.645,1.645
		h-35.903c-0.908,0-1.645-0.737-1.645-1.645l0,0C236.404,86.836,237.141,86.099,238.049,86.099z"/>
	<circle style="fill:#C6CBD6;" cx="225.854" cy="87.687" r="2.949"/>
</g>
<g>
	<path style="fill:#FEFEFE;" d="M236.744,284.898c-1.248,1.815-3.687,2.269-5.502,1.021s-2.269-3.687-1.021-5.502
		c2.893-4.197,6.75-7.657,11.287-10.096c4.367-2.325,9.359-3.63,14.633-3.63c5.275,0,10.266,1.305,14.633,3.63
		c4.538,2.382,8.394,5.899,11.287,10.096c1.248,1.815,0.737,4.254-1.021,5.502c-1.815,1.248-4.254,0.737-5.502-1.021
		c-2.155-3.176-5.048-5.785-8.451-7.544c-3.233-1.702-6.976-2.723-10.947-2.723c-3.97,0-7.714,0.964-10.947,2.723
		C241.792,279.17,238.899,281.722,236.744,284.898z M163.747,235.156c-1.248,1.815-3.687,2.269-5.502,1.021
		s-2.269-3.687-1.021-5.502c11.003-16.051,25.75-29.324,43.05-38.455c16.675-8.791,35.676-13.783,55.811-13.783
		s39.136,4.991,55.811,13.783c17.299,9.132,32.103,22.404,43.05,38.455c1.248,1.815,0.737,4.254-1.021,5.502
		c-1.815,1.248-4.254,0.737-5.502-1.021c-10.266-15.03-24.049-27.395-40.214-35.96c-15.541-8.224-33.294-12.875-52.181-12.875
		c-18.831,0-36.584,4.651-52.181,12.875c-16.165,8.565-29.947,20.929-40.214,35.96H163.747z M187.966,251.661
		c-1.248,1.815-3.687,2.269-5.502,1.021c-1.815-1.248-2.269-3.687-1.021-5.502c8.281-12.138,19.455-22.12,32.5-29.04
		c12.592-6.636,26.941-10.436,42.142-10.436s29.55,3.743,42.142,10.436c13.045,6.92,24.219,16.902,32.5,29.04
		c1.248,1.815,0.794,4.254-1.021,5.502c-1.815,1.248-4.254,0.737-5.502-1.021c-7.544-11.06-17.753-20.192-29.664-26.488
		c-11.457-6.069-24.559-9.472-38.455-9.472s-26.998,3.46-38.455,9.472C205.719,231.469,195.509,240.601,187.966,251.661z
		 M209.065,266.011c-1.248,1.815-3.687,2.269-5.502,1.021s-2.269-3.687-1.021-5.502c5.955-8.678,13.953-15.881,23.311-20.816
		c9.018-4.764,19.341-7.487,30.231-7.487c10.89,0,21.213,2.723,30.231,7.487c9.359,4.935,17.356,12.138,23.311,20.816
		c1.248,1.815,0.737,4.254-1.021,5.502c-1.815,1.248-4.254,0.737-5.502-1.021c-5.218-7.657-12.251-13.953-20.475-18.32
		c-7.941-4.197-16.959-6.579-26.544-6.579c-9.585,0-18.66,2.382-26.544,6.579C221.316,252.058,214.283,258.354,209.065,266.011z"/>
	<path style="fill:#FEFEFE;" d="M257.106,312.634c8.338,0,15.144,6.75,15.144,15.144c0,8.338-6.75,15.144-15.144,15.144
		c-8.338,0-15.144-6.75-15.144-15.144C241.962,319.44,248.712,312.634,257.106,312.634z"/>
</g>
<g>
</g>
<g>
</g>
<g>
</g>
<g>
</g>
<g>
</g>
<g>
</g>
<g>
</g>
<g>
</g>
<g>
</g>
<g>
</g>
<g>
</g>
<g>
</g>
<g>
</g>
<g>
</g>
<g>
</g>
</svg>
