<?xml version="1.0" encoding="iso-8859-1"?>
<!-- Generator: Adobe Illustrator 19.0.0, SVG Export Plug-In . SVG Version: 6.00 Build 0)  -->
<svg version="1.1" id="Layer_1" xmlns="http://www.w3.org/2000/svg" xmlns:xlink="http://www.w3.org/1999/xlink" x="0px" y="0px"
	 viewBox="0 0 512 512" style="enable-background:new 0 0 512 512;" xml:space="preserve">
<path style="fill:#FFE356;" d="M256,0c141.389,0,256,114.617,256,256c0,141.389-114.617,256-256,256C114.611,512,0,397.389,0,256
	S114.611,0,256,0z"/>
<g>
	<path style="fill:#6C7678;" d="M370.665,65.927l-52.412,80.407l-12.612-9.143l60.139-74.805c-2.861-3.68-3.078-8.95-0.205-12.913
		c3.493-4.812,10.221-5.884,15.033-2.397c4.812,3.493,5.884,10.221,2.397,15.033C380.133,66.072,375.056,67.499,370.665,65.927z"/>
	<path style="fill:#6C7678;" d="M240.629,65.927l52.412,80.407l12.606-9.143l-60.133-74.805c2.861-3.68,3.078-8.95,0.205-12.913
		c-3.493-4.812-10.221-5.884-15.033-2.397c-4.812,3.493-5.884,10.221-2.397,15.033C231.161,66.072,236.239,67.499,240.629,65.927z"
		/>
</g>
<path style="fill:#83CF8F;" d="M250.887,136.95h109.516c5.583,0,10.143,4.559,10.143,10.143v10.173H240.738v-10.173
	c0-5.583,4.559-10.143,10.143-10.143H250.887z"/>
<path style="fill:#6C7678;" d="M48.858,149.014h414.283c7.27,0,13.208,5.945,13.208,13.214v255.615
	c0,7.282-5.945,13.226-13.208,13.226H48.858c-7.27,0-13.214-5.945-13.214-13.226V162.229
	C35.644,154.959,41.589,149.014,48.858,149.014z"/>
<g>
	<polygon style="fill:#596366;" points="59.513,169.607 370.96,169.607 370.96,407.164 59.513,407.164 	"/>
	<path style="fill:#596366;" d="M420.704,174.311c14.479,0,26.212,11.721,26.212,26.212c0,14.479-11.733,26.212-26.212,26.212
		c-14.479,0-26.212-11.733-26.212-26.212C394.492,186.031,406.225,174.311,420.704,174.311z"/>
</g>
<path style="fill:#FEFEFE;" d="M80.816,178.207h268.841c6.667,0,12.118,5.451,12.118,12.118v196.132
	c0,6.667-5.451,12.118-12.118,12.118H80.816c-6.667,0-12.118-5.451-12.118-12.118V190.326
	C68.698,183.658,74.149,178.207,80.816,178.207z"/>
<path style="fill:#C6CBD6;" d="M420.704,176.822c13.088,0,23.688,10.612,23.688,23.7c0,13.076-10.6,23.688-23.688,23.688
	s-23.688-10.612-23.688-23.688C397.016,187.435,407.616,176.822,420.704,176.822z"/>
<g>
	<path style="fill:#596366;" d="M406.899,276.797h27.615c1.711,0,3.108,1.397,3.108,3.108v0.012c0,1.711-1.397,3.108-3.108,3.108
		h-27.615c-1.711,0-3.108-1.397-3.108-3.108v-0.012C403.791,278.195,405.189,276.797,406.899,276.797z"/>
	<path style="fill:#596366;" d="M391.83,289.458h57.748c1.711,0,3.108,1.397,3.108,3.108v0.012c0,1.711-1.397,3.108-3.108,3.108
		H391.83c-1.711,0-3.108-1.397-3.108-3.108v-0.012C388.722,290.855,390.119,289.458,391.83,289.458z"/>
	<path style="fill:#596366;" d="M385.295,302.136h70.83c1.711,0,3.108,1.397,3.108,3.108v0.012c0,1.711-1.397,3.108-3.108,3.108
		h-70.83c-1.711,0-3.108-1.397-3.108-3.108v-0.012C382.187,303.533,383.584,302.136,385.295,302.136z"/>
	<path style="fill:#596366;" d="M383.874,314.802h73.673c1.711,0,3.108,1.415,3.108,3.12v0.012c0,1.698-1.397,3.108-3.108,3.108
		h-73.673c-1.711,0-3.108-1.409-3.108-3.108v-0.012C380.766,316.212,382.163,314.802,383.874,314.802z"/>
	<path style="fill:#596366;" d="M406.899,352.825h27.615c1.711,0,3.108,1.397,3.108,3.108v0.012c0,1.711-1.397,3.108-3.108,3.108
		h-27.615c-1.711,0-3.108-1.397-3.108-3.108v-0.012C403.791,354.222,405.189,352.825,406.899,352.825z"/>
	<path style="fill:#596366;" d="M385.295,327.481h70.83c1.711,0,3.108,1.397,3.108,3.108v0.012c0,1.711-1.397,3.108-3.108,3.108
		h-70.83c-1.711,0-3.108-1.397-3.108-3.108v-0.012C382.187,328.878,383.584,327.481,385.295,327.481z"/>
	<path style="fill:#596366;" d="M391.83,340.159h57.748c1.711,0,3.108,1.397,3.108,3.108v0.012c0,1.711-1.397,3.108-3.108,3.108
		H391.83c-1.711,0-3.108-1.397-3.108-3.108v-0.012C388.722,341.556,390.119,340.159,391.83,340.159z"/>
</g>
<path style="fill:#FEFEFE;" d="M419.114,171.456h3.174c1.452,0,2.614,1.162,2.614,2.614v52.888c0,1.452-1.162,2.614-2.614,2.614
	h-3.174c-1.452,0-2.614-1.162-2.614-2.614V174.07C416.5,172.618,417.662,171.456,419.114,171.456z"/>
<path style="fill:#596366;" d="M449.072,393.227c6.396,0,11.57,5.174,11.57,11.57c0,6.384-5.174,11.558-11.57,11.558
	c-6.378,0-11.558-5.174-11.558-11.558C437.514,398.407,442.688,393.227,449.072,393.227z"/>
<path style="fill:#E4E7ED;" d="M449.072,395.293c5.258,0,9.516,4.246,9.516,9.504c0,5.246-4.258,9.504-9.516,9.504
	c-5.24,0-9.504-4.258-9.504-9.504C439.568,399.539,443.826,395.293,449.072,395.293z"/>
<path style="fill:#FF7069;" d="M449.072,396.678c4.493,0,8.119,3.644,8.119,8.119c0,4.481-3.626,8.107-8.119,8.107
	c-4.475,0-8.107-3.626-8.107-8.107C440.965,400.322,444.591,396.678,449.072,396.678z"/>
<path style="fill:#596366;" d="M420.704,393.227c6.378,0,11.558,5.174,11.558,11.57c0,6.384-5.174,11.558-11.558,11.558
	c-6.396,0-11.57-5.174-11.57-11.558C409.134,398.407,414.308,393.227,420.704,393.227z"/>
<path style="fill:#E4E7ED;" d="M420.704,395.293c5.246,0,9.504,4.246,9.504,9.504c0,5.246-4.258,9.504-9.504,9.504
	c-5.24,0-9.504-4.258-9.504-9.504C411.2,399.539,415.458,395.293,420.704,395.293z"/>
<path style="fill:#FFE356;" d="M420.704,396.678c4.481,0,8.107,3.644,8.107,8.119c0,4.481-3.626,8.107-8.107,8.107
	c-4.475,0-8.107-3.626-8.107-8.107C412.597,400.322,416.223,396.678,420.704,396.678z"/>
<path style="fill:#596366;" d="M392.324,393.227c6.39,0,11.57,5.174,11.57,11.57c0,6.384-5.174,11.558-11.57,11.558
	c-6.384,0-11.558-5.174-11.558-11.558C380.766,398.407,385.939,393.227,392.324,393.227z"/>
<path style="fill:#E4E7ED;" d="M392.336,395.293c5.246,0,9.504,4.246,9.504,9.504c0,5.246-4.258,9.504-9.504,9.504
	c-5.258,0-9.516-4.258-9.516-9.504C382.82,399.539,387.078,395.293,392.336,395.293z"/>
<path style="fill:#83CF8F;" d="M392.336,396.678c4.481,0,8.107,3.644,8.107,8.119c0,4.481-3.626,8.107-8.107,8.107
	c-4.493,0-8.119-3.626-8.119-8.107C384.217,400.322,387.843,396.678,392.336,396.678z"/>
<g>
</g>
<g>
</g>
<g>
</g>
<g>
</g>
<g>
</g>
<g>
</g>
<g>
</g>
<g>
</g>
<g>
</g>
<g>
</g>
<g>
</g>
<g>
</g>
<g>
</g>
<g>
</g>
<g>
</g>
</svg>
