<?xml version="1.0" encoding="iso-8859-1"?>
<!-- Generator: Adobe Illustrator 19.0.0, SVG Export Plug-In . SVG Version: 6.00 Build 0)  -->
<svg version="1.1" id="Layer_1" xmlns="http://www.w3.org/2000/svg" xmlns:xlink="http://www.w3.org/1999/xlink" x="0px" y="0px"
	 viewBox="0 0 512.132 512.132" style="enable-background:new 0 0 512.132 512.132;" xml:space="preserve">
<circle style="fill:#FF7069;" cx="256.066" cy="256.066" r="256.066"/>
<path style="fill:#ECF0F1;" d="M240.81,511.605v-92.983h30.381v92.983c-4.998,0.263-10.127,0.395-15.125,0.395
	c-5.129,0-10.127-0.132-15.125-0.395H240.81z"/>
<path style="fill:#5D718F;" d="M175.708,180.048h160.715v211.744c0,14.73-12.1,26.83-26.83,26.83H202.406
	c-14.73,0-26.83-12.1-26.83-26.83V180.048H175.708z"/>
<polygon style="fill:#FFFFFF;" points="190.307,57.079 321.693,57.079 321.693,180.048 190.307,180.048 "/>
<polygon style="fill:#E4E7ED;" points="314.591,57.079 321.693,57.079 321.693,180.048 314.591,180.048 "/>
<g>
	<path style="fill:#C6CBD6;" d="M209.64,90.879h26.698v22.753H209.64V90.879z M275.662,90.879h26.698v22.753h-26.698V90.879z"/>
	<path style="fill:#C6CBD6;" d="M220.03,287.893c0,3.682-0.132,16.44,0.132,19.596c0.395,4.603,3.551,9.864,6.97,12.757
		c1.184,0.921,2.893,2.893,3.814,3.551c1.447,1.184,2.893,2.762,4.34,3.946l12.231,11.705c1.184,1.184,2.367,1.973,3.156,3.419
		c2.236,3.551,1.71,7.102,1.71,11.311c0,2.236,0,4.472,0,6.707c-3.156,0.789-5.655,1.973-8.023,3.946l-1.052,0.921
		c-1.184,1.184-2.236,2.499-3.025,3.946l-1.052,2.104c-1.973,4.472-1.71,10.127,0.263,14.467c0.263,0.526,0.395,0.921,0.789,1.447
		c1.578,2.762,3.946,5.129,6.707,6.707c6.05,3.551,13.415,3.025,19.202-0.789c0.526-0.395,0.789-0.526,1.184-0.921
		c0.789-0.658,1.447-1.447,2.236-2.236c0.132-0.263,0.263-0.395,0.526-0.526c2.236-2.762,3.946-6.576,3.946-10.39
		c0-3.025-0.263-5.655-1.447-8.154c-0.263-0.526-0.395-0.789-0.658-1.315c-3.025-4.998-6.444-7.76-12.363-9.206v-35.51
		c0-3.551-0.132-6.313,1.578-9.075c0.658-1.052,1.447-2.104,2.499-2.893c0.263-0.132,0.263-0.263,0.526-0.395l8.68-8.154
		c0.132-0.132,0.263-0.263,0.395-0.526c0.263-0.263,0.263-0.263,0.526-0.395l1.841-1.71c0.921-0.789,2.893-2.893,3.682-3.551
		c0.658-0.526,1.184-1.184,1.841-1.71l1.841-1.71c0.263-0.132,0.263-0.132,0.526-0.395l3.288-3.156
		c2.893-2.893,5.524-8.154,5.524-12.231V261.59h7.234v-21.7h-21.701v21.7h7.233v17.492c0,2.63-1.315,5.261-2.893,6.839
		c-0.263,0.263-0.526,0.526-0.789,0.789l-2.63,2.367c-0.658,0.658-1.052,1.052-1.71,1.71l-7.76,7.234
		c-1.184,1.052-2.236,2.236-3.419,3.288l-6.05,5.655v-83.382h8.943c-1.184-2.236-2.499-4.472-3.814-6.707
		c-0.132-0.263-0.263-0.395-0.395-0.658l-5.129-8.812c-0.395-0.658-2.893-4.866-3.025-5.392c-0.395,0.395-4.34,7.365-4.735,8.023
		l-5.129,8.812c-0.526,0.789-2.63,4.209-2.762,4.866h8.812v110.475c-0.658-0.395-1.052-1.184-1.71-1.578l-6.05-5.655
		c-1.184-1.052-2.236-2.236-3.419-3.288l-0.921-0.789c-0.263-0.263-0.526-0.526-0.789-0.789l-7.76-7.365
		c-1.315-1.315-2.104-1.841-3.156-3.551c-0.921-1.578-1.447-3.419-1.447-5.392v-17.492c0-0.395,1.052-0.658,1.315-0.789
		c0.526-0.263,1.052-0.526,1.447-0.921c8.417-6.181,4.077-19.596-6.313-19.596c-7.234,0-12.1,6.839-10.521,13.283
		c0.395,1.841,1.184,3.551,2.499,4.866c1.052,1.052,2.236,1.973,3.551,2.63c0.263,0.132,0.658,0.263,0.921,0.395L220.03,287.893z"/>
	<path style="fill:#C6CBD6;" d="M265.009,511.868v-93.246h6.181v92.983C269.086,511.737,266.982,511.868,265.009,511.868z"/>
</g>
<g>
</g>
<g>
</g>
<g>
</g>
<g>
</g>
<g>
</g>
<g>
</g>
<g>
</g>
<g>
</g>
<g>
</g>
<g>
</g>
<g>
</g>
<g>
</g>
<g>
</g>
<g>
</g>
<g>
</g>
</svg>
