<?xml version="1.0" encoding="iso-8859-1"?>
<!-- Generator: Adobe Illustrator 19.0.0, SVG Export Plug-In . SVG Version: 6.00 Build 0)  -->
<svg version="1.1" id="Layer_1" xmlns="http://www.w3.org/2000/svg" xmlns:xlink="http://www.w3.org/1999/xlink" x="0px" y="0px"
	 viewBox="0 0 512 512" style="enable-background:new 0 0 512 512;" xml:space="preserve">
<path style="fill:#83CF8F;" d="M256,0c141.355,0,256,114.645,256,256S397.355,512,256,512S0,397.355,0,256S114.645,0,256,0z"/>
<path style="fill:#F8F8F8;" d="M196.5,436.967c-11.177,7.068-15.286,4.602-28.6,4.602h-18.984h-9.369l0.082-22.518
	c0.164-3.945,1.561-7.479,6.492-10.108l58.021-22.025l10.191-27.942h36.325h36.325l10.191,27.942l58.021,22.025
	c4.931,2.63,6.41,6.246,6.492,10.108l0.082,22.518h-9.369h-18.984c-13.396,0-17.505,2.383-28.6-4.602
	c-10.766-6.821-42.406-13.396-54.241-13.396s-43.475,6.575-54.241,13.396H196.5z"/>
<path style="fill:#ECF0F1;" d="M196.5,436.967c-5.588,3.534-9.451,4.684-13.56,4.931c1.315-7.232,4.274-14.629,10.766-19.313
	c41.585-23.258,72.568-23.504,114.152,0c6.41,4.602,9.451,11.999,10.766,19.313c-4.109-0.247-7.972-1.397-13.56-4.931
	c-10.766-6.821-42.406-13.396-54.241-13.396s-43.475,6.575-54.241,13.396H196.5z"/>
<path style="fill:#E4E7ED;" d="M205.622,383.055l8.794-24.08h36.325h36.325l9.78,26.792c-13.067,3.287-26.792,5.013-40.927,5.013
	c-17.587,0-34.517-2.712-50.378-7.725H205.622z"/>
<path style="fill:#ECF0F1;" d="M256,61.719c89.251,0,161.654,72.403,161.654,161.654S345.251,385.027,256,385.027
	S94.346,312.624,94.346,223.373S166.749,61.719,256,61.719z"/>
<path style="fill:#F8F8F8;" d="M256,61.719c57.775,0,108.482,30.326,137.081,75.937c76.677,190.336-179.241,321.911-286.901,146.45
	c-7.643-18.738-11.834-39.283-11.834-60.733C94.346,134.123,166.749,61.719,256,61.719z"/>
<circle style="fill:#C6CBD6;" cx="256" cy="203.239" r="69.938"/>
<circle style="fill:#8597B1;" cx="256" cy="203.239" r="60.24"/>
<path style="fill:#6B7F9E;" d="M256,142.998c19.806,0,37.311,9.533,48.324,24.244c-10.766-10.273-25.395-16.519-41.42-16.519
	c-33.284,0-60.24,26.956-60.24,60.24c0,13.478,4.438,25.97,11.917,35.996c-11.588-11.013-18.738-26.463-18.738-43.721
	c0-33.284,26.956-60.24,60.24-60.24H256z"/>
<circle style="fill:#384A66;" cx="256" cy="203.239" r="37.229"/>
<circle style="fill:#2F3F57;" cx="256" cy="203.239" r="13.642"/>
<g>
	<circle style="fill:#C6CBD6;" cx="242.275" cy="181.131" r="9.04"/>
	<circle style="fill:#C6CBD6;" cx="269.231" cy="226.743" r="4.52"/>
</g>
<g>
</g>
<g>
</g>
<g>
</g>
<g>
</g>
<g>
</g>
<g>
</g>
<g>
</g>
<g>
</g>
<g>
</g>
<g>
</g>
<g>
</g>
<g>
</g>
<g>
</g>
<g>
</g>
<g>
</g>
</svg>
